<svg id="Capa_1" data-name="Capa 1" xmlns="http://www.w3.org/2000/svg" viewBox="0 0 300 200" fill="#FFFFFF"><path d="M259,150.29a2.54,2.54,0,0,0-2.13,2.88A29.89,29.89,0,1,1,242,131.59a2.53,2.53,0,0,0,2.51-4.4,35,35,0,0,0-47.16,12.3v-8.16a51.18,51.18,0,0,0-11.51-32.39V83.18a31.6,31.6,0,0,1,31.56-31.55h.69a31.6,31.6,0,0,1,31.56,31.55V99.37a2.54,2.54,0,1,0,5.07,0V83.18a36.69,36.69,0,0,0-25.4-34.85,22,22,0,1,0-23.14,0,36.67,36.67,0,0,0-25.39,34.85V93.56a51.39,51.39,0,0,0-21.56-11.9,30.47,30.47,0,1,0-27.6,0,51.4,51.4,0,0,0-21.55,11.9V83.18A36.69,36.69,0,0,0,84.7,48.33a22,22,0,1,0-23.14,0A36.67,36.67,0,0,0,36.17,83.19V99.37a2.54,2.54,0,1,0,5.07,0V83.19A31.58,31.58,0,0,1,72.79,51.63h.69A31.6,31.6,0,0,1,105,83.19V99a51.23,51.23,0,0,0-11.5,32.39V167.9a2.54,2.54,0,0,0,4.37,1.87,2.57,2.57,0,0,0,.7-1.87V131.33A46.4,46.4,0,0,1,145,85h1a46.38,46.38,0,0,1,46.34,46.35v24.61c0,.12,0,.25,0,.38,0,.43,0,.86,0,1.29h0a35,35,0,1,0,69.56-5.19,2.54,2.54,0,0,0-2.9-2.13ZM200.8,29.61a17,17,0,1,1,5,12,17,17,0,0,1-5-12Zm-144.62,0a17,17,0,1,1,5,12A17,17,0,0,1,56.18,29.61ZM120,54.51h0a25.44,25.44,0,1,1,7.45,17.95A25.42,25.42,0,0,1,120,54.51Z"/><path d="M263.25,133.83a2.53,2.53,0,0,0-3.57-.34L220.43,166l-7.3-7.72a2.54,2.54,0,0,0-3.69,3.48l8.93,9.44a2.47,2.47,0,0,0,1.84.79,2.51,2.51,0,0,0,1.62-.58l41.08-34.06a2.53,2.53,0,0,0,.34-3.56Z"/></svg>