<svg id="Capa_1" data-name="Capa 1" xmlns="http://www.w3.org/2000/svg" viewBox="0 0 300 200" fill="#FFFFFF"><path d="M131.3,114a53,53,0,0,0,52.35-60.78,2.26,2.26,0,1,0-4.48.66,48.38,48.38,0,1,1-24-34.92A2.26,2.26,0,1,0,157.42,15a52.93,52.93,0,1,0-26.12,99Z"/><path d="M108,63.33a2.27,2.27,0,0,0-3.3,3.11l13.94,14.77a2.26,2.26,0,0,0,3.09.19L186,28.2a2.28,2.28,0,0,0,.4-3.27,2.25,2.25,0,0,0-3.29-.21L120.52,76.59Z"/><path d="M248.9,168.49H221.73a2,2,0,0,0-.49.06l-82.77,18.36h0A17.42,17.42,0,0,1,125,184.37L58.23,139.43a10.89,10.89,0,0,1,10.92-18.82l50.38,24.93A15.16,15.16,0,0,0,134,165.33a15.44,15.44,0,0,0,2.88-.27l56.31-10.78h0a2.27,2.27,0,0,0-.86-4.45L136,160.62a10.65,10.65,0,0,1-11.56-15.15v0a10.58,10.58,0,0,1,5.23-5l50-22.08a35.93,35.93,0,0,1,24.05-1.76l16.79,4.63h0a1.71,1.71,0,0,0,.6.08H248.9a2.26,2.26,0,0,0,0-4.52H221.41l-16.49-4.55a40.45,40.45,0,0,0-27.08,2l-50,22.07a15.07,15.07,0,0,0-6.32,5.21L71.16,116.57A15.42,15.42,0,0,0,55.72,143.2l66.8,44.94a22,22,0,0,0,12.22,3.71,21.21,21.21,0,0,0,4.7-.5L222,173H248.9a2.26,2.26,0,1,0,0-4.52Z"/></svg>