<svg id="Capa_1" data-name="Capa 1" xmlns="http://www.w3.org/2000/svg" viewBox="0 0 300 200" fill="#FFFFFF"><path d="M151.62,71.61a32.58,32.58,0,0,0,32.2-37.37,2,2,0,0,0-4,.6,28.45,28.45,0,1,1-14.12-20.55,2,2,0,0,0,2-3.53,32.55,32.55,0,1,0-16.09,60.86Z"/><path d="M138.09,40a2,2,0,0,0-3,2.79l8.4,8.9a2.07,2.07,0,0,0,1.48.63,2,2,0,0,0,1.29-.46l38.66-32h0a2,2,0,0,0-2.6-3.13L145.18,47.47Z"/><path d="M227,133.17c-2.14-.6-4.49-1.3-7-2.12h0a22,22,0,1,0-25.46-11.14c-13.32-7.51-26.59-18.26-35.14-33.52a9.1,9.1,0,0,0-1.08-2.89,9.37,9.37,0,0,0-16.42.5c-8.47,16.53-22.4,28-36.42,36h0A21.95,21.95,0,1,0,80,131.05c-2.52.82-4.9,1.54-7.07,2.14a22.13,22.13,0,0,0-16.14,21.3v37a2,2,0,0,0,4.07,0v-37A18.05,18.05,0,0,1,74,137.11a158.62,158.62,0,0,0,17.49-6,21.87,21.87,0,0,0,6-2.63c17.58-8.1,37-21.38,47.94-42.69h0a5.3,5.3,0,0,1,5.94-2.75,5.11,5.11,0,0,1,3.35,2.47,5.21,5.21,0,0,1,.48,4.17c-2.64,8.74-11.64,31.17-38.06,50.64a2.11,2.11,0,0,0-.23.19,2.09,2.09,0,0,0-.6,1.45v49.48a2,2,0,0,0,4.07,0V143a115.4,115.4,0,0,0,28.67-30.67c6.48,12.87,16.18,20.17,30.42,30.67v48.45a2,2,0,0,0,4.06,0V142a2,2,0,0,0-.82-1.65c-14.94-11-24.8-18.27-30.93-31.75a2.86,2.86,0,0,0-.24-.42,88.86,88.86,0,0,0,6.94-15.37c11.28,17.29,28.33,28.52,43.85,35.69h0a21.76,21.76,0,0,0,6.12,2.65,158.55,158.55,0,0,0,17.35,6,18.12,18.12,0,0,1,13.25,17.4v37a2,2,0,0,0,4.07,0v-37A22.2,22.2,0,0,0,227,133.16ZM86,127.8A17.89,17.89,0,1,1,95.61,125c-1.81.82-3.59,1.59-5.36,2.32a17.82,17.82,0,0,1-4.3.52Zm110.24-17.88a17.88,17.88,0,1,1,13.61,17.36c-1.77-.72-3.57-1.51-5.4-2.34h0a17.89,17.89,0,0,1-8.21-15Z"/></svg>