<?xml version="1.0" encoding="utf-8"?>
<!-- Generator: Adobe Illustrator 26.0.2, SVG Export Plug-In . SVG Version: 6.00 Build 0)  -->
<svg version="1.1" id="Capa_1" xmlns="http://www.w3.org/2000/svg" xmlns:xlink="http://www.w3.org/1999/xlink" x="0px" y="0px"
	 viewBox="0 0 298.3 300.9" style="enable-background:new 0 0 298.3 300.9;" xml:space="preserve">
<style type="text/css">
	.st0{fill: #FFFFFF;}
</style>
<path class="st0" d="M216.8,6.6l-66.9,38.7L81.8,6.2L7.4,49.1V213l141.9,81.9l141.9-81.3v-164h0L216.8,6.6z M270.8,53.4l-114.7,66.2
	V57.3l60.3-34.8L270.8,53.4z M163,209.5l47.1-27.2v54.4L163,209.5L163,209.5L163,209.5z M95.4,170l47.1-27.2v54.4L95.4,170z
	 M142.5,119.6L95.3,92.5l47.2-27.3V119.6z M135.2,131.3l-46.7,27v-53.9L135.2,131.3z M156.1,197.2v-54.5l47.2,27.3L156.1,197.2z
	 M81.8,21.8l53.2,31.6L81.7,84.1L27.8,53L81.8,21.8z M21,205.1V64.8l53.9,31.1v78.5l67.6,39v61.8L21,205.1z M156.1,275.2v-54
	l46.7,27L156.1,275.2z M277.6,205.6l-53.9,31.1l0-8.6L224,166l-0.3,0.2V166l-60.3-34.8l114.3-66L277.6,205.6z"/>
</svg>
